<?xml version="1.0" encoding="UTF-8"?>
<svg width="614px" height="35px" viewBox="0 0 614 35" version="1.1" xmlns="http://www.w3.org/2000/svg" xmlns:xlink="http://www.w3.org/1999/xlink">
    <!-- Generator: Sketch 44.1 (41455) - http://www.bohemiancoding.com/sketch -->
    <title>Sidebar-Sprite-New</title>
    <desc>Created with Sketch.</desc>
    <defs></defs>
    <g id="Page-1" stroke="none" stroke-width="1" fill="none" fill-rule="evenodd">
        <g id="Sidebar-Sprite-New">
            <g id="Group-2" transform="translate(76.000000, 6.000000)" stroke="#4ACFA5">
                <circle id="Oval-19" cx="12" cy="12" r="12"></circle>
                <path d="M20.8,20.1585096 C22.7858793,18.0174876 24,15.1505303 24,12 C24,8.8494697 22.7858793,5.9825124 20.8,3.8414904 C18.8141207,5.9825124 17.6,8.8494697 17.6,12 C17.6,15.1505303 18.8141207,18.0174876 20.8,20.1585096 Z" id="Oval-19"></path>
                <path d="M2.8,4.2950142 C1.0523158,6.3795962 0,9.0669074 0,12 C0,14.9330926 1.0523158,17.6204038 2.8,19.7049858 C4.5476842,17.6204038 5.6,14.9330926 5.6,12 C5.6,9.0669074 4.5476842,6.3795962 2.8,4.2950142 Z" id="Oval-19"></path>
            </g>
            <g id="Group" transform="translate(6.000000, 6.000000)" stroke="#BBBBBB">
                <circle id="Oval-19-Copy-3" cx="12" cy="12" r="12"></circle>
                <path d="M20.8,20.1585096 C22.7858793,18.0174876 24,15.1505303 24,12 C24,8.8494697 22.7858793,5.9825124 20.8,3.8414904 C18.8141207,5.9825124 17.6,8.8494697 17.6,12 C17.6,15.1505303 18.8141207,18.0174876 20.8,20.1585096 Z" id="Oval-19-Copy-2"></path>
                <path d="M2.8,4.2950142 C1.05231582,6.3795962 0,9.0669074 0,12 C0,14.9330926 1.05231582,17.6204038 2.8,19.7049858 C4.54768416,17.6204038 5.6,14.9330926 5.6,12 C5.6,9.0669074 4.54768416,6.3795962 2.8,4.2950142 Z" id="Oval-19-Copy"></path>
            </g>
            <g id="Group-4" transform="translate(146.000000, 10.000000)" fill-rule="nonzero" fill="#BBBBBB">
                <path d="M17,11.05 L18,11.05 L18,17 L17,17 L17,11.05 Z M17,0.85 L18,0.85 L18,5.95 L17,5.95 L17,0.85 Z M17.425,10.625 L17.425,10.625 C18.598605,10.625 19.55,9.6736051 19.55,8.5 C19.55,7.3263949 18.598605,6.375 17.425,6.375 C16.251395,6.375 15.3,7.3263949 15.3,8.5 C15.3,9.6736051 16.251395,10.625 17.425,10.625 L17.425,10.625 Z M17.425,11.475 L17.425,11.475 C15.781953,11.475 14.45,10.1430471 14.45,8.5 C14.45,6.8569529 15.781953,5.525 17.425,5.525 C19.068047,5.525 20.4,6.8569529 20.4,8.5 C20.4,10.1430471 19.068047,11.475 17.425,11.475 L17.425,11.475 Z M29.75,5.096088 L29.75,5.096088 L29.75,11.903912 C29.75,11.8983698 29.751611,11.9 29.742161,11.9 L34,11.9 L33.15,12.75 L33.15,4.25 L34,5.1 L29.742161,5.1 C29.750509,5.1 29.75,5.1005091 29.75,5.096088 L29.75,5.096088 Z M28.9,5.096088 C28.9,4.6288065 29.283329,4.25 29.742161,4.25 L34,4.25 L34,12.75 L29.742161,12.75 C29.277048,12.75 28.9,12.3626853 28.9,11.903912 L28.9,5.096088 L28.9,5.096088 Z M-5.68434189e-14,5.1 L-5.68434189e-14,5.1 L0.85,4.25 L0.85,12.75 L-5.68434189e-14,11.9 L4.257839,11.9 C4.249491,11.9 4.25,11.8994909 4.25,11.903912 L4.25,5.096088 C4.25,5.1016302 4.248389,5.1 4.257839,5.1 L-5.68434189e-14,5.1 Z M-5.68434189e-14,4.25 L4.257839,4.25 C4.722952,4.25 5.1,4.6373147 5.1,5.096088 L5.1,11.903912 C5.1,12.3711935 4.716671,12.75 4.257839,12.75 L-5.68434189e-14,12.75 L-5.68434189e-14,4.25 L-5.68434189e-14,4.25 Z M0.85,1.6921758 L0.85,1.6921758 L0.85,15.3078242 C0.85,15.7689391 1.231391,16.15 1.697698,16.15 L32.302302,16.15 C32.772406,16.15 33.15,15.7732852 33.15,15.3078242 L33.15,1.6921758 C33.15,1.2310609 32.768609,0.85 32.302302,0.85 L1.697698,0.85 C1.227594,0.85 0.85,1.2267148 0.85,1.6921758 L0.85,1.6921758 Z M-5.68434189e-14,1.6921758 C-5.68434189e-14,0.75761291 0.757809,0 1.697698,0 L32.302302,0 C33.239915,0 34,0.76348054 34,1.6921758 L34,15.3078242 C34,16.2423871 33.242191,17 32.302302,17 L1.697698,17 C0.760085,17 -5.68434189e-14,16.2365195 -5.68434189e-14,15.3078242 L-5.68434189e-14,1.6921758 L-5.68434189e-14,1.6921758 Z" id="Shape"></path>
            </g>
            <g id="Group-3" transform="translate(226.000000, 10.000000)" fill="#4ACFA5">
                <path d="M17,5.55512777 L17,0.85 L18,0.85 L18,5.5805227 C19.3678849,5.84838848 20.4,7.05366258 20.4,8.5 C20.4,10.1430471 19.068047,11.475 17.425,11.475 C15.781953,11.475 14.45,10.1430471 14.45,8.5 C14.45,7.00124948 15.5582751,5.76135039 17,5.55512777 Z M17.425,10.625 C18.598605,10.625 19.55,9.6736051 19.55,8.5 C19.55,7.3263949 18.598605,6.375 17.425,6.375 C16.251395,6.375 15.3,7.3263949 15.3,8.5 C15.3,9.6736051 16.251395,10.625 17.425,10.625 Z M29.75,5.096088 L29.75,5.096088 L29.75,11.903912 C29.75,11.8983698 29.751611,11.9 29.742161,11.9 L34,11.9 L33.15,12.75 L33.15,4.25 L34,5.1 L29.742161,5.1 C29.750509,5.1 29.75,5.1005091 29.75,5.096088 L29.75,5.096088 Z M28.9,5.096088 C28.9,4.6288065 29.283329,4.25 29.742161,4.25 L34,4.25 L34,12.75 L29.742161,12.75 C29.277048,12.75 28.9,12.3626853 28.9,11.903912 L28.9,5.096088 L28.9,5.096088 Z M0,5.1 L0,5.1 L0.85,4.25 L0.85,12.75 L0,11.9 L4.257839,11.9 C4.249491,11.9 4.25,11.8994909 4.25,11.903912 L4.25,5.096088 C4.25,5.1016302 4.248389,5.1 4.257839,5.1 L0,5.1 Z M0,4.25 L4.257839,4.25 C4.722952,4.25 5.1,4.6373147 5.1,5.096088 L5.1,11.903912 C5.1,12.3711935 4.716671,12.75 4.257839,12.75 L0,12.75 L0,4.25 L0,4.25 Z M0.85,1.6921758 L0.85,1.6921758 L0.85,15.3078242 C0.85,15.7689391 1.231391,16.15 1.697698,16.15 L32.302302,16.15 C32.772406,16.15 33.15,15.7732852 33.15,15.3078242 L33.15,1.6921758 C33.15,1.2310609 32.768609,0.85 32.302302,0.85 L1.697698,0.85 C1.227594,0.85 0.85,1.2267148 0.85,1.6921758 L0.85,1.6921758 Z M0,1.6921758 C0,0.75761291 0.757809,0 1.697698,0 L32.302302,0 C33.239915,0 34,0.76348054 34,1.6921758 L34,15.3078242 C34,16.2423871 33.242191,17 32.302302,17 L1.697698,17 C0.760085,17 0,16.2365195 0,15.3078242 L0,1.6921758 L0,1.6921758 Z" id="Shape-Copy-4" fill-rule="nonzero"></path>
                <rect id="Rectangle-path" x="17" y="11" width="1" height="5.95"></rect>
            </g>
            <g id="Group-5" transform="translate(317.000000, 5.000000)">
                <rect id="path-1" stroke="#BBBBBB" x="0" y="4.69580632" width="14.7857143" height="20.3125" rx="2"></rect>
                <path d="M6.395019,3.47705632 L6.762104,1.41784029 C6.928168,0.48628252 7.833806,-0.137820935 8.774,0.02615866 L20.439055,2.06066536 C21.382398,2.22519414 22.014297,3.11845539 21.848405,4.0490478 L18.702598,21.6958882 C18.536534,22.6274459 17.630896,23.2515494 16.690702,23.0875698 L16.017857,22.9702187 L16.017857,22.0836728 L16.751382,22.2116072 C17.305253,22.308208 17.841096,21.9389414 17.938786,21.39094 L21.038038,4.00525745 C21.135701,3.45740243 20.762176,2.92938149 20.206013,2.83238086 L8.71359,0.82798308 C8.15972,0.73138225 7.623876,1.10064887 7.526187,1.64865022 L7.200246,3.47705632 L6.395019,3.47705632 Z" id="A" fill="#BBBBBB" fill-rule="nonzero"></path>
                <path d="M3.543882,6.49630632 L4.061382,6.49630632 L5.436453,9.9770563 L4.918953,9.9770563 L4.534525,8.92893132 L3.046096,8.92893132 L2.651811,9.9770563 L2.173739,9.9770563 L3.543882,6.49630632 Z M3.193953,8.53893132 L4.386668,8.53893132 L3.800168,6.91555632 L3.790311,6.91555632 L3.193953,8.53893132 Z" id="Combined-Shape" fill="#BBBBBB"></path>
                <path d="M6.875782,11.1006237 C7.161355,10.7566979 7.628429,10.7615988 7.909932,11.1006237 L10.830996,14.6185687 C11.116569,14.9624945 11.1125,15.5250094 10.830996,15.8640342 L7.909932,19.3819792 C7.62436,19.725905 7.157285,19.7210041 6.875782,19.3819792 L3.954718,15.8640342 C3.669145,15.5201084 3.673215,14.9575936 3.954718,14.6185687 L6.875782,11.1006237 Z" id="Rectangle-72-Copy-3-Copy" stroke="#BBBBBB"></path>
            </g>
            <g id="Group-6" transform="translate(397.000000, 5.000000)">
                <rect id="path-1-copy" stroke="#4ACFA5" x="0" y="4.69580632" width="14.7857143" height="20.3125" rx="2"></rect>
                <path d="M6.395019,3.47705632 L6.762104,1.41784029 C6.928168,0.48628252 7.833806,-0.137820935 8.774,0.02615866 L20.439055,2.06066536 C21.382398,2.22519414 22.014297,3.11845539 21.848405,4.0490478 L18.702598,21.6958882 C18.536534,22.6274459 17.630896,23.2515494 16.690702,23.0875698 L16.017857,22.9702187 L16.017857,22.0836728 L16.751382,22.2116072 C17.305253,22.308208 17.841096,21.9389414 17.938786,21.39094 L21.038038,4.00525745 C21.135701,3.45740243 20.762176,2.92938149 20.206013,2.83238086 L8.71359,0.82798308 C8.15972,0.73138225 7.623876,1.10064887 7.526187,1.64865022 L7.200246,3.47705632 L6.395019,3.47705632 Z" id="Shape-Copy-5" fill="#4ACFA5" fill-rule="nonzero"></path>
                <path d="M6.875782,11.1006237 C7.161355,10.7566979 7.628429,10.7615988 7.909932,11.1006237 L10.830996,14.6185687 C11.116569,14.9624945 11.1125,15.5250094 10.830996,15.8640342 L7.909932,19.3819792 C7.62436,19.725905 7.157285,19.7210041 6.875782,19.3819792 L3.954718,15.8640342 C3.669145,15.5201084 3.673215,14.9575936 3.954718,14.6185687 L6.875782,11.1006237 Z" id="Rectangle-72-Copy-3" stroke="#4ACFA5"></path>
                <path d="M3.193953,8.53893132 L3.790311,6.91555632 L3.800168,6.91555632 L4.386668,8.53893132 L3.193953,8.53893132 Z M3.543882,6.49630632 L2.173739,9.9770563 L2.651811,9.9770563 L3.046096,8.92893132 L4.534525,8.92893132 L4.918953,9.9770563 L5.436453,9.9770563 L4.061382,6.49630632 L3.543882,6.49630632 Z" id="A-Copy" fill="#4ACFA5" fill-rule="nonzero"></path>
            </g>
            <g id="Group-7" transform="translate(485.000000, 4.000000)">
                <polygon id="Star-1" stroke="#BBBBBB" points="14 25.5345676 11.089236 27.6940664 9.308469 24.5373518 5.771006 25.3262379 5.428146 21.7181322 1.875644 21 3.029974 17.5643774 0.076693 15.4633985 2.52862 12.7943094 0.685209 9.67376208 4.010771 8.23271614 3.595972 4.63217151 7.220151 4.66833876 8.305687 1.21036359 11.601829 2.71749034 14 0 16.398171 2.71749034 19.694313 1.21036359 20.779849 4.66833876 24.404028 4.63217151 23.989229 8.23271614 27.314791 9.67376208 25.47138 12.7943094 27.923307 15.4633985 24.970026 17.5643774 26.124356 21 22.571854 21.7181322 22.228994 25.3262379 18.691531 24.5373518 16.910764 27.6940664"></polygon>
                <path d="M11.765423,13.4476327 C11.598038,13.1630784 11.457856,12.8659748 11.344871,12.5563128 C11.231886,12.2466508 11.175395,11.8909632 11.175395,11.4892396 C11.175395,11.0875159 11.252809,10.7297361 11.40764,10.4158896 C11.562471,10.1020429 11.771699,9.83632341 12.03533,9.61872306 C12.298961,9.40112279 12.602342,9.23374044 12.945481,9.11657106 C13.28862,8.9994016 13.652676,8.94081778 14.037661,8.94081778 C14.966647,8.94081778 15.696853,9.2107218 16.2283,9.750538 C16.759747,10.2903542 17.017097,11.1000664 17.000359,12.1796987 L15.933286,12.1796987 C15.916547,11.4432053 15.757534,10.8761976 15.456241,10.4786586 C15.154948,10.0811195 14.703016,9.88235294 14.10043,9.88235294 C13.849353,9.88235294 13.615018,9.92419853 13.397418,10.0078909 C13.179817,10.0915834 12.98942,10.2066587 12.826219,10.3531205 C12.663019,10.4995823 12.53539,10.6732414 12.443329,10.8741033 C12.351267,11.0749652 12.305237,11.2925622 12.305237,11.526901 C12.305237,11.7277629 12.32616,11.9139757 12.368006,12.0855452 C12.409852,12.2571147 12.462159,12.4182202 12.524928,12.5688666 C12.587698,12.719513 12.656743,12.8659725 12.732066,13.0082496 C12.807389,13.1505268 12.882711,13.2969863 12.958034,13.4476327 L14.954089,13.4476327 L14.954089,14.0125538 L13.234218,14.0125538 C13.301172,14.1464617 13.359756,14.2929213 13.409971,14.4519369 C13.460187,14.6109525 13.485294,14.7783349 13.485294,14.954089 C13.485294,15.2386432 13.443449,15.491809 13.359756,15.713594 C13.276064,15.9353789 13.167265,16.1404223 13.033357,16.3287303 C12.899449,16.5170383 12.744621,16.6906975 12.568867,16.8497131 C12.393112,17.0087286 12.213176,17.1635574 12.029053,17.3142037 L12.054161,17.3393113 C12.271761,17.2472497 12.483081,17.1635585 12.688128,17.0882353 C12.893174,17.0129121 13.121233,16.9752511 13.37231,16.9752511 C13.615018,16.9752511 13.832615,16.9961738 14.025108,17.0380201 C14.2176,17.0798663 14.397536,17.1217119 14.564921,17.1635581 C14.732306,17.2137735 14.901781,17.2639882 15.07335,17.3142037 C15.24492,17.3644192 15.426948,17.3895266 15.61944,17.3895266 C15.820302,17.3895266 16.019069,17.3414041 16.215746,17.2451578 C16.412423,17.1489115 16.586082,17.0422053 16.736729,16.9250359 L17.276542,17.7535868 C17.025465,17.9711871 16.738823,18.119739 16.416607,18.1992468 C16.094391,18.2787546 15.770088,18.3185079 15.443687,18.3185079 C15.234456,18.3185079 15.029413,18.2934005 14.828551,18.2431851 C14.627689,18.1929696 14.418461,18.1385704 14.200861,18.0799857 C13.99163,18.0130317 13.78031,17.9523556 13.566894,17.8979555 C13.353478,17.8435555 13.12542,17.8163558 12.882712,17.8163558 C12.640004,17.8163558 12.418222,17.8561091 12.21736,17.9356169 C12.016498,18.0151247 11.819824,18.1176464 11.627331,18.2431851 L11.037303,17.427188 C11.213057,17.3100185 11.384624,17.1719281 11.552009,17.0129125 C11.719393,16.8538969 11.867945,16.6781454 11.997669,16.4856528 C12.127392,16.2931602 12.229914,16.0881168 12.305237,15.8705165 C12.38056,15.6529162 12.418221,15.4227654 12.418221,15.1800574 C12.418221,14.9875648 12.384744,14.786706 12.317791,14.5774749 C12.250837,14.3682438 12.179699,14.1799387 12.104376,14.0125538 L11.037303,14.0125538 L11.037303,13.4476327 L11.765423,13.4476327 Z" id="£" fill="#BBBBBB" fill-rule="nonzero"></path>
            </g>
            <g id="Group-8" transform="translate(565.000000, 4.000000)">
                <polygon id="Star-1-Copy" stroke="#4ACFA5" points="14 25.5345676 11.089236 27.6940664 9.308469 24.5373518 5.771006 25.3262379 5.428146 21.7181322 1.875644 21 3.029974 17.5643774 0.076693 15.4633985 2.52862 12.7943094 0.685209 9.67376208 4.010771 8.23271614 3.595972 4.63217151 7.220151 4.66833876 8.305687 1.21036359 11.601829 2.71749034 14 0 16.398171 2.71749034 19.694313 1.21036359 20.779849 4.66833876 24.404028 4.63217151 23.989229 8.23271614 27.314791 9.67376208 25.47138 12.7943094 27.923307 15.4633985 24.970026 17.5643774 26.124356 21 22.571854 21.7181322 22.228994 25.3262379 18.691531 24.5373518 16.910764 27.6940664"></polygon>
                <path d="M11.765423,13.4476327 C11.598038,13.1630784 11.457856,12.8659748 11.344871,12.5563128 C11.231886,12.2466508 11.175395,11.8909632 11.175395,11.4892396 C11.175395,11.0875159 11.252809,10.7297361 11.40764,10.4158896 C11.562471,10.1020429 11.771699,9.83632341 12.03533,9.61872306 C12.298961,9.40112279 12.602342,9.23374044 12.945481,9.11657106 C13.28862,8.9994016 13.652676,8.94081778 14.037661,8.94081778 C14.966647,8.94081778 15.696853,9.2107218 16.2283,9.750538 C16.759747,10.2903542 17.017097,11.1000664 17.000359,12.1796987 L15.933286,12.1796987 C15.916547,11.4432053 15.757534,10.8761976 15.456241,10.4786586 C15.154948,10.0811195 14.703016,9.88235294 14.10043,9.88235294 C13.849353,9.88235294 13.615018,9.92419853 13.397418,10.0078909 C13.179817,10.0915834 12.98942,10.2066587 12.826219,10.3531205 C12.663019,10.4995823 12.53539,10.6732414 12.443329,10.8741033 C12.351267,11.0749652 12.305237,11.2925622 12.305237,11.526901 C12.305237,11.7277629 12.32616,11.9139757 12.368006,12.0855452 C12.409852,12.2571147 12.462159,12.4182202 12.524928,12.5688666 C12.587698,12.719513 12.656743,12.8659725 12.732066,13.0082496 C12.807389,13.1505268 12.882711,13.2969863 12.958034,13.4476327 L14.954089,13.4476327 L14.954089,14.0125538 L13.234218,14.0125538 C13.301172,14.1464617 13.359756,14.2929213 13.409971,14.4519369 C13.460187,14.6109525 13.485294,14.7783349 13.485294,14.954089 C13.485294,15.2386432 13.443449,15.491809 13.359756,15.713594 C13.276064,15.9353789 13.167265,16.1404223 13.033357,16.3287303 C12.899449,16.5170383 12.744621,16.6906975 12.568867,16.8497131 C12.393112,17.0087286 12.213176,17.1635574 12.029053,17.3142037 L12.054161,17.3393113 C12.271761,17.2472497 12.483081,17.1635585 12.688128,17.0882353 C12.893174,17.0129121 13.121233,16.9752511 13.37231,16.9752511 C13.615018,16.9752511 13.832615,16.9961738 14.025108,17.0380201 C14.2176,17.0798663 14.397536,17.1217119 14.564921,17.1635581 C14.732306,17.2137735 14.901781,17.2639882 15.07335,17.3142037 C15.24492,17.3644192 15.426948,17.3895266 15.61944,17.3895266 C15.820302,17.3895266 16.019069,17.3414041 16.215746,17.2451578 C16.412423,17.1489115 16.586082,17.0422053 16.736729,16.9250359 L17.276542,17.7535868 C17.025465,17.9711871 16.738823,18.119739 16.416607,18.1992468 C16.094391,18.2787546 15.770088,18.3185079 15.443687,18.3185079 C15.234456,18.3185079 15.029413,18.2934005 14.828551,18.2431851 C14.627689,18.1929696 14.418461,18.1385704 14.200861,18.0799857 C13.99163,18.0130317 13.78031,17.9523556 13.566894,17.8979555 C13.353478,17.8435555 13.12542,17.8163558 12.882712,17.8163558 C12.640004,17.8163558 12.418222,17.8561091 12.21736,17.9356169 C12.016498,18.0151247 11.819824,18.1176464 11.627331,18.2431851 L11.037303,17.427188 C11.213057,17.3100185 11.384624,17.1719281 11.552009,17.0129125 C11.719393,16.8538969 11.867945,16.6781454 11.997669,16.4856528 C12.127392,16.2931602 12.229914,16.0881168 12.305237,15.8705165 C12.38056,15.6529162 12.418221,15.4227654 12.418221,15.1800574 C12.418221,14.9875648 12.384744,14.786706 12.317791,14.5774749 C12.250837,14.3682438 12.179699,14.1799387 12.104376,14.0125538 L11.037303,14.0125538 L11.037303,13.4476327 L11.765423,13.4476327 Z" id="£-copy" fill="#4ACFA5" fill-rule="nonzero"></path>
            </g>
        </g>
    </g>
</svg>