<?xml version="1.0" encoding="UTF-8"?>
<svg width="46px" height="31px" viewBox="0 0 46 31" version="1.1" xmlns="http://www.w3.org/2000/svg" xmlns:xlink="http://www.w3.org/1999/xlink">
    <!-- Generator: Sketch 55.2 (78181) - https://sketchapp.com -->
    <title>Bingo-Exclusive</title>
    <desc>Created with Sketch.</desc>
    <g id="Bingo-Exclusive" stroke="none" stroke-width="1" fill="none" fill-rule="evenodd">
        <g id="Group-45" transform="translate(0.000000, 1.000000)" fill="#ccc" fill-rule="nonzero">
            <g id="Group-82">
                <g id="Group-41" transform="translate(15.278333, 0.000000)">
                    <path d="M7.72166739,12.3797757 L3.77861913,14.4527589 C3.04499174,14.8384496 2.18755931,14.2154885 2.32766967,13.3985824 L3.08072488,9.00793363 L-0.109268173,5.89845891 C-0.702785192,5.3199228 -0.375275146,4.31195052 0.444945202,4.19276553 L4.85340718,3.5521785 L6.82493131,-0.442565711 C7.191745,-1.18581143 8.25158978,-1.18581143 8.61840347,-0.442565711 L10.5899276,3.5521785 L14.9983896,4.19276553 C15.8186099,4.31195052 16.14612,5.3199228 15.552603,5.89845891 L12.3626099,9.00793363 L13.1156651,13.3985824 C13.2557755,14.2154885 12.398343,14.8384496 11.6647157,14.4527589 L7.72166739,12.3797757 Z M7.72166739,11.25 L12.1300568,13.5676275 L11.2881293,8.65881373 L14.8545913,5.18237254 L9.92586209,4.46618627 L7.72166739,1.11022302e-16 L5.51747269,4.46618627 L0.588743518,5.18237254 L4.15520545,8.65881373 L3.313278,13.5676275 L7.72166739,11.25 Z" id="Star"></path>
                </g>
                <g id="Group-44" transform="translate(0.000000, 9.033088)">
                    <g id="Group-39">
                        <g id="Group-81" transform="translate(0.271583, 0.000000)">
                            <g id="Group-42">
                                <path d="M15.4622594,8.39018456 C15.2284923,8.2431895 15.1581496,7.93452077 15.3051447,7.70075366 C15.4521397,7.46698654 15.7608085,7.3966439 15.9945756,7.54363897 C19.2234268,9.57397244 21.7658901,14.2541207 21.7693975,19.9551001 C21.770131,19.9863 21.7679149,20.0172816 21.762914,20.0476636 C21.7497089,20.128987 21.7168874,20.2037297 21.6694627,20.2668784 C21.6335601,20.315854 21.5843994,20.3612796 21.5262137,20.3960075 C21.4778587,20.4250101 21.4241955,20.4460707 21.3670274,20.4573858 C21.3068167,20.4693697 21.2466408,20.4699701 21.1886492,20.4604247 C21.1073259,20.4472196 21.0325832,20.4143981 20.9694344,20.3669734 C20.9204589,20.3310708 20.8750333,20.2819101 20.8403054,20.2237244 C20.82464,20.1976062 20.8112917,20.1699392 20.8005447,20.1410079 C19.9811194,18.0935137 16.2639111,15.2530688 13.584171,14.4456528 C13.3197696,14.3659876 13.1700113,14.0870666 13.2496765,13.8226652 C13.3293416,13.5582639 13.6082626,13.4085056 13.872664,13.4881708 C16.1536544,14.175442 19.0432078,16.1447375 20.6718197,18.0970389 C20.1975556,13.5988536 18.0504117,10.0176403 15.4622594,8.39018456 Z" id="Shape"></path>
                                <g id="Group-46">
                                    <path d="M3.66704709,13.7061452 C2.93341971,14.0918359 2.07598728,13.4688748 2.21609764,12.6519687 L2.80076736,9.24308265 L0.324066691,6.82889616 C-0.269450329,6.25036005 0.0580597171,5.24238778 0.878280065,5.12320278 L4.30099621,4.62585302 L5.8316814,1.52434605 C6.19849509,0.781100335 7.25833986,0.781100335 7.62515356,1.52434605 L9.15583875,4.62585302 L12.5785549,5.12320278 C13.3987752,5.24238778 13.7262853,6.25036005 13.1327683,6.82889616 L10.6560676,9.24308265 L11.2407373,12.6519687 C11.3808477,13.4688748 10.5234152,14.0918359 9.78978787,13.7061452 L6.72841748,12.0966875 L3.66704709,13.7061452 Z M6.72841748,10.9669118 L10.255129,12.8210137 L9.58158703,8.89396275 L12.4347566,6.1128098 L8.49177324,5.53986078 L6.72841748,1.96691176 L4.96506172,5.53986078 L1.02207838,6.1128098 L3.87524793,8.89396275 L3.20170597,12.8210137 L6.72841748,10.9669118 Z" id="Star"></path>
                                    <path d="M18.0819709,13.0221694 C17.8499041,12.7901026 17.5847065,12.5584101 17.2851826,12.3233572 C17.0679456,12.1528793 16.7536406,12.1907851 16.5831628,12.4080221 C16.4126849,12.6252591 16.4505907,12.9395641 16.6678277,13.1100419 C16.9375245,13.3216879 17.1730105,13.5274226 17.3748641,13.7292762 C17.5701262,13.9245383 17.8867087,13.9245383 18.0819709,13.7292762 C18.277233,13.534014 18.277233,13.2174315 18.0819709,13.0221694 Z M15.5878412,11.1582238 C15.3388754,11.0029456 15.098511,10.8565241 14.7277959,10.633129 C14.4912781,10.4906019 14.1840016,10.5667965 14.0414745,10.8033143 C13.8989475,11.0398321 13.9751421,11.3471086 14.2116599,11.4896356 C14.5783291,11.7105926 14.8150397,11.8547884 15.05864,12.0067202 C15.2929458,12.152855 15.6013539,12.0813783 15.7474888,11.8470725 C15.8936237,11.6127667 15.822147,11.3043586 15.5878412,11.1582238 Z M13.0564291,9.58621438 C13.0362954,9.57216255 13.0362954,9.57216255 13.0164129,9.55818372 C12.7906553,9.39916138 12.4787295,9.45326103 12.3197072,9.67901866 C12.1606848,9.90477629 12.2147845,10.2167021 12.4405421,10.3757244 C12.4625799,10.3912185 12.4625799,10.3912185 12.4847989,10.4067258 C12.7113769,10.5645771 13.0230184,10.5088631 13.1808697,10.2822852 C13.338721,10.0557072 13.2830071,9.74406568 13.0564291,9.58621438 Z" id="Path-12"></path>
                                </g>
                            </g>
                        </g>
                    </g>
                </g>
                <g id="Group-44" transform="translate(34.500000, 19.533088) scale(-1, 1) translate(-34.500000, -19.533088) translate(23.000000, 9.033088)">
                    <g id="Group-39">
                        <g id="Group-81" transform="translate(0.271583, 0.000000)">
                            <g id="Group-42">
                                <path d="M15.4622594,8.39018456 C15.2284923,8.2431895 15.1581496,7.93452077 15.3051447,7.70075366 C15.4521397,7.46698654 15.7608085,7.3966439 15.9945756,7.54363897 C19.2234268,9.57397244 21.7658901,14.2541207 21.7693975,19.9551001 C21.770131,19.9863 21.7679149,20.0172816 21.762914,20.0476636 C21.7497089,20.128987 21.7168874,20.2037297 21.6694627,20.2668784 C21.6335601,20.315854 21.5843994,20.3612796 21.5262137,20.3960075 C21.4778587,20.4250101 21.4241955,20.4460707 21.3670274,20.4573858 C21.3068167,20.4693697 21.2466408,20.4699701 21.1886492,20.4604247 C21.1073259,20.4472196 21.0325832,20.4143981 20.9694344,20.3669734 C20.9204589,20.3310708 20.8750333,20.2819101 20.8403054,20.2237244 C20.82464,20.1976062 20.8112917,20.1699392 20.8005447,20.1410079 C19.9811194,18.0935137 16.2639111,15.2530688 13.584171,14.4456528 C13.3197696,14.3659876 13.1700113,14.0870666 13.2496765,13.8226652 C13.3293416,13.5582639 13.6082626,13.4085056 13.872664,13.4881708 C16.1536544,14.175442 19.0432078,16.1447375 20.6718197,18.0970389 C20.1975556,13.5988536 18.0504117,10.0176403 15.4622594,8.39018456 Z" id="Shape"></path>
                                <g id="Group-46">
                                    <path d="M3.66704709,13.7061452 C2.93341971,14.0918359 2.07598728,13.4688748 2.21609764,12.6519687 L2.80076736,9.24308265 L0.324066691,6.82889616 C-0.269450329,6.25036005 0.0580597171,5.24238778 0.878280065,5.12320278 L4.30099621,4.62585302 L5.8316814,1.52434605 C6.19849509,0.781100335 7.25833986,0.781100335 7.62515356,1.52434605 L9.15583875,4.62585302 L12.5785549,5.12320278 C13.3987752,5.24238778 13.7262853,6.25036005 13.1327683,6.82889616 L10.6560676,9.24308265 L11.2407373,12.6519687 C11.3808477,13.4688748 10.5234152,14.0918359 9.78978787,13.7061452 L6.72841748,12.0966875 L3.66704709,13.7061452 Z M6.72841748,10.9669118 L10.255129,12.8210137 L9.58158703,8.89396275 L12.4347566,6.1128098 L8.49177324,5.53986078 L6.72841748,1.96691176 L4.96506172,5.53986078 L1.02207838,6.1128098 L3.87524793,8.89396275 L3.20170597,12.8210137 L6.72841748,10.9669118 Z" id="Star"></path>
                                    <path d="M18.0819709,13.0221694 C17.8499041,12.7901026 17.5847065,12.5584101 17.2851826,12.3233572 C17.0679456,12.1528793 16.7536406,12.1907851 16.5831628,12.4080221 C16.4126849,12.6252591 16.4505907,12.9395641 16.6678277,13.1100419 C16.9375245,13.3216879 17.1730105,13.5274226 17.3748641,13.7292762 C17.5701262,13.9245383 17.8867087,13.9245383 18.0819709,13.7292762 C18.277233,13.534014 18.277233,13.2174315 18.0819709,13.0221694 Z M15.5878412,11.1582238 C15.3388754,11.0029456 15.098511,10.8565241 14.7277959,10.633129 C14.4912781,10.4906019 14.1840016,10.5667965 14.0414745,10.8033143 C13.8989475,11.0398321 13.9751421,11.3471086 14.2116599,11.4896356 C14.5783291,11.7105926 14.8150397,11.8547884 15.05864,12.0067202 C15.2929458,12.152855 15.6013539,12.0813783 15.7474888,11.8470725 C15.8936237,11.6127667 15.822147,11.3043586 15.5878412,11.1582238 Z M13.0564291,9.58621438 C13.0362954,9.57216255 13.0362954,9.57216255 13.0164129,9.55818372 C12.7906553,9.39916138 12.4787295,9.45326103 12.3197072,9.67901866 C12.1606848,9.90477629 12.2147845,10.2167021 12.4405421,10.3757244 C12.4625799,10.3912185 12.4625799,10.3912185 12.4847989,10.4067258 C12.7113769,10.5645771 13.0230184,10.5088631 13.1808697,10.2822852 C13.338721,10.0557072 13.2830071,9.74406568 13.0564291,9.58621438 Z" id="Path-12"></path>
                                </g>
                            </g>
                        </g>
                    </g>
                </g>
            </g>
            <path d="M23.5,20.0001439 L23.5002878,19.000144 L22.5002879,18.9998561 L22.5,19.9998561 L23.5,20.0001439 Z M23.5005757,18.000144 L23.5008635,17.0001441 L22.5008636,16.9998562 L22.5005757,17.9998562 L23.5005757,18.000144 Z M23.5011514,16.0001441 L23.5014392,15.0001441 L22.5014393,14.9998563 L22.5011514,15.9998563 L23.5011514,16.0001441 Z" id="Path-10"></path>
        </g>
    </g>
</svg>