<?xml version="1.0" encoding="UTF-8"?>
<svg width="27px" height="24px" viewBox="0 0 27 24" version="1.1" xmlns="http://www.w3.org/2000/svg" xmlns:xlink="http://www.w3.org/1999/xlink">
    <!-- Generator: Sketch 52.2 (67145) - http://www.bohemiancoding.com/sketch -->
    <title>1.24 | Instant Win</title>
    <desc>Created with Sketch.</desc>
    <g id="1.24-|-Instant-Win" stroke="none" stroke-width="1" fill="none" fill-rule="evenodd">
        <path d="M24.7045337,16.8790395 C25.299314,16.5613102 25.5357726,15.8361996 25.2394085,15.2609164 C24.9501893,14.6951246 24.2463777,14.4875341 23.6578579,14.8030863 L23.185318,13.921777 C24.2610082,13.345014 25.5823422,13.7347439 26.1290986,14.8043542 C26.6776942,15.869243 26.2474682,17.1885496 25.1754508,17.7612169 L17.3339497,21.9434473 C17.2507982,21.982809 17.1128899,22.0266356 16.9107603,22.0653944 C16.1947799,22.2026854 15.0949343,22.2008313 13.5144941,21.9771113 L8.51647241,21.1620988 C8.50959678,21.1614842 8.50959678,21.1614842 8.44985383,21.158209 C8.11781137,21.1427164 7.73042572,21.1612581 7.37387386,21.2384036 C7.17337289,21.2817851 6.99952454,21.3412221 6.8600877,21.4156755 L4.68479502,22.5766158 L4.21395917,21.694395 L6.38916117,20.533503 C6.61773952,20.4114518 6.87733975,20.3226972 7.16240174,20.2610196 C7.61780023,20.1624871 8.08529221,20.1401112 8.4964616,20.1592957 C8.57577849,20.1636212 8.57577849,20.1636212 8.63823873,20.1703131 L13.6648609,20.9885356 C15.1329778,21.1962543 16.1245898,21.197926 16.7224388,21.083287 C16.8405593,21.0606371 16.8982433,21.0427541 16.8860353,21.0496498 L24.7045337,16.8790395 Z M16.9650832,14.7810937 C17.2060913,14.812394 17.4412456,14.7476913 17.6696434,14.5721038 C17.7387019,14.5298102 17.7728109,14.4906864 17.8207826,14.3845814 C17.8639823,14.3102414 17.8936739,14.2350928 17.9105141,14.1558239 C17.9992916,13.7435003 17.7202325,13.3403059 17.2717262,13.2550892 L15.3034716,12.8844811 L9.42588345,11.7352788 C9.38046788,11.7222521 9.3338819,11.7117103 9.28612651,11.7036009 C8.9306875,11.6432436 8.52310446,11.7184203 8.11530622,11.8863361 C7.92640449,11.9641186 7.78510034,12.0405639 7.68002109,12.1060629 L1.10280962,15.6132748 L0.632287634,14.7308865 L7.17472582,11.2440582 C7.29210258,11.1687375 7.48472595,11.0645287 7.73455866,10.9616571 C8.30042678,10.7286542 8.88404706,10.6210081 9.45354061,10.7177142 C9.53742918,10.7319594 9.62016402,10.7506812 9.65953283,10.763921 L15.4917807,11.902377 L17.4575741,12.2725111 C18.4501689,12.4611035 19.0970763,13.3957783 18.8883999,14.364959 C18.8492195,14.5494071 18.7804683,14.7234143 18.7181026,14.8195471 C18.6206629,15.0661385 18.4407764,15.2724723 18.2402803,15.3911879 C17.8487332,15.6997859 17.3439963,15.8386768 16.9007707,15.7769411 L16.7600298,15.773179 L11.8854201,14.8603912 C11.8749706,14.8574133 11.8469182,14.8505874 11.8081884,14.8432953 C11.7800324,14.837994 11.7520714,14.8336704 11.7251378,14.8304965 C11.7387261,14.9543355 11.7510244,15.0718327 11.7567408,15.1283765 C11.7579191,15.1347069 11.7600105,15.1458445 11.763763,15.1658273 C11.8560618,15.6480403 12.143228,15.9429797 12.5054861,16.0653517 C12.9399049,16.2105915 13.7982122,16.3714318 14.9336645,16.5318369 C15.5628385,16.6207202 16.2380718,16.7041823 16.9134609,16.7797098 C17.2226545,16.8142864 17.4792333,16.8414376 17.6630085,16.8600877 L20.4501218,15.3751586 L23.186971,13.9208947 L23.6562049,14.8039686 L20.9198441,16.2579726 L17.866233,17.8848878 L17.7160072,17.8702998 C17.5324468,17.8524747 17.2128283,17.8194209 16.8023254,17.7735151 C16.1180538,17.6969942 15.4336263,17.6123957 14.7937836,17.5220053 C13.5977401,17.3530405 12.7001251,17.1848341 12.1869312,17.0132548 C11.4995712,16.7810673 10.9459401,16.2124502 10.7814418,15.3530288 C10.7718207,15.3027816 10.7718207,15.3027816 10.7641072,15.2528788 C10.7685243,15.2912599 10.7361158,14.9760172 10.7098322,14.7510312 C10.6411373,14.1380014 11.0697179,13.8330601 11.6049711,13.8245168 C11.734577,13.8224482 11.8648235,13.8363881 11.9932186,13.8605624 C12.0644628,13.8739764 12.1215059,13.8878565 12.1142703,13.8880389 L16.8858675,14.7793878 C16.9039955,14.7796681 16.9288559,14.7802483 16.9650832,14.7810937 Z M10.7622532,15.2383164 C10.7618276,15.2347914 10.7614524,15.2314205 10.7607019,15.2246788 C10.7633839,15.2495306 10.7648882,15.2629825 10.7654073,15.2670194 L10.7622532,15.2383164 Z M11.7549292,15.1173844 C11.7552216,15.1200566 11.7552572,15.1204055 11.7567408,15.1283765 C11.7613564,15.1740309 11.761681,15.1799487 11.7549292,15.1173844 Z M17.5266395,3.56624133 C17.5266395,2.93925552 16.991362,2.42338418 16.321981,2.42338418 C15.652801,2.42338418 15.1175486,2.93927857 15.1175486,3.56624133 C15.1175486,4.19320408 15.652801,4.70909847 16.321981,4.70909847 C16.991362,4.70909847 17.5266395,4.19322714 17.5266395,3.56624133 Z M18.5266395,3.56624133 C18.5266395,4.75394322 17.535553,5.70909847 16.321981,5.70909847 C15.1085904,5.70909847 14.1175486,4.75389883 14.1175486,3.56624133 C14.1175486,2.37858382 15.1085904,1.42338418 16.321981,1.42338418 C17.535553,1.42338418 18.5266395,2.37853944 18.5266395,3.56624133 Z M12.3904078,10.3174376 L11.4087807,10.1266286 C11.7195899,8.5276538 13.3234626,7.50507585 14.9808796,7.82724506 C16.638652,8.14948338 17.7425758,9.69828688 17.4317447,11.2973742 L16.4501176,11.1065653 C16.6532996,10.0612844 15.9167252,9.02787173 14.7900706,8.80887225 C13.6637714,8.58994186 12.593568,9.27226931 12.3904078,10.3174376 Z M25.1230616,8.75828796 C25.1230616,7.37538517 23.9314533,6.24376119 22.4488352,6.24376119 C20.9665792,6.24376119 19.7748502,7.37549981 19.7748502,8.75828796 C19.7748502,10.1412762 20.9665474,11.273044 22.4488352,11.273044 C23.9314851,11.273044 25.1230616,10.1413908 25.1230616,8.75828796 Z M26.1230616,8.75828796 C26.1230616,10.7055445 24.4725599,12.273044 22.4488352,12.273044 C20.4254726,12.273044 18.7748502,10.7054298 18.7748502,8.75828796 C18.7748502,6.81133372 20.4255154,5.24376119 22.4488352,5.24376119 C24.4725171,5.24376119 26.1230616,6.81121908 26.1230616,8.75828796 Z" id="Fill-1" fill="#BBBBBB" fill-rule="nonzero"></path>
    </g>
</svg>