<?xml version="1.0" encoding="UTF-8"?>
<svg width="20px" height="24px" viewBox="0 0 20 24" version="1.1" xmlns="http://www.w3.org/2000/svg" xmlns:xlink="http://www.w3.org/1999/xlink">
    <!-- Generator: Sketch 52.2 (67145) - http://www.bohemiancoding.com/sketch -->
    <title>1.8 | Bonus Slots</title>
    <desc>Created with Sketch.</desc>
    <g id="1.8-|-Bonus-Slots" stroke="none" stroke-width="1" fill="none" fill-rule="evenodd">
        <path d="M16,21 L16,17 L13.2911051,17 C13.8194096,14.3601593 15.7223556,10.76422 19,6.44212797 L19,3 L1,3 L1,9 L5,9 L5,7 L13.4690027,7 C10.1374496,10.1315757 7.69542555,13.2990469 6.14285714,17 L3,17 L3,21 L16,21 Z M5.48689509,16 C6.80228814,13.0694643 8.59735177,10.5401948 10.9955437,7.97197022 L6,7.97197022 L6,10 L0,10 L0,2 L20,2 L20,6.77841979 L19.7967964,7.04637589 C17.092882,10.6119142 15.3287154,13.6843566 14.5619738,16 L17,16 L17,22 L2,22 L2,16 L5.48689509,16 Z" id="7" fill="#BBBBBB" fill-rule="nonzero"></path>
    </g>
</svg>