<?xml version="1.0" encoding="UTF-8"?>
<svg width="21px" height="24px" viewBox="0 0 21 24" version="1.1" xmlns="http://www.w3.org/2000/svg" xmlns:xlink="http://www.w3.org/1999/xlink">
    <!-- Generator: Sketch 52.2 (67145) - http://www.bohemiancoding.com/sketch -->
    <title>1.11 | Video Slots</title>
    <desc>Created with Sketch.</desc>
    <g id="1.11-|-Video-Slots" stroke="none" stroke-width="1" fill="none" fill-rule="evenodd">
        <path d="M13.7383267,12.5 L8.24610889,9.36158984 L8.24610889,15.6384102 L13.7383267,12.5 Z M7.24610889,17.3615898 L7.24610889,7.63841016 L15.7538911,12.5 L7.24610889,17.3615898 Z M10.5,23 C4.70101013,23 0,18.2989899 0,12.5 C0,6.70101013 4.70101013,2 10.5,2 C16.2989899,2 21,6.70101013 21,12.5 C21,18.2989899 16.2989899,23 10.5,23 Z M10.5,22 C15.7467051,22 20,17.7467051 20,12.5 C20,7.25329488 15.7467051,3 10.5,3 C5.25329488,3 1,7.25329488 1,12.5 C1,17.7467051 5.25329488,22 10.5,22 Z" id="Triangle-2" fill="#BBBBBB" fill-rule="nonzero"></path>
    </g>
</svg>