<?xml version="1.0" encoding="UTF-8"?>
<svg width="24px" height="24px" viewBox="0 0 24 24" version="1.1" xmlns="http://www.w3.org/2000/svg" xmlns:xlink="http://www.w3.org/1999/xlink">
    <!-- Generator: Sketch 52.2 (67145) - http://www.bohemiancoding.com/sketch -->
    <title>1.5 | Premium Slots</title>
    <desc>Created with Sketch.</desc>
    <g id="1.5-|-Premium-Slots" stroke="none" stroke-width="1" fill="none" fill-rule="evenodd">
        <path d="M14.7078166,6.29951095 C14.7078166,6.30349188 14.7156248,6.3264671 14.745419,6.37781061 C14.773104,6.42551962 14.7223518,6.3504801 14.8947185,6.60179997 C14.9343736,6.65996188 14.9516173,6.68582363 14.976274,6.72459988 C15.7398928,7.9254995 16.9151168,8.51938337 18.5645331,8.51938337 C19.9395544,8.51938337 20.9892169,8.18343504 21.7356619,7.52381366 C22.0908139,7.20997157 22.3286078,6.90841044 22.3286078,6.8575203 C22.3286078,6.76419028 22.167257,6.49281169 21.9759052,6.30277878 C20.9175952,5.25176354 19.7659987,4.73709264 18.5,4.73709264 C17.1801604,4.73709264 16.0215031,5.17031246 15.0034232,6.0454859 C14.9287167,6.10932818 14.8951958,6.13831816 14.8590794,6.17122078 C14.7520562,6.26872054 14.7078166,6.33172853 14.7078166,6.29951095 Z M13.7078166,6.29951095 C13.7078166,5.95607747 13.8808291,5.70966579 14.185628,5.43198929 C14.2329024,5.38892156 14.2774204,5.35042089 14.3515446,5.28716255 C15.5502777,4.25669388 16.9399644,3.73709264 18.5,3.73709264 C20.0412637,3.73709264 21.441823,4.36302986 22.6805624,5.59323084 C23.0434591,5.95362618 23.3286078,6.43322271 23.3286078,6.8575203 C23.3286078,7.31737601 22.9819568,7.75698557 22.3978441,8.27315653 C21.4530383,9.10806618 20.1678875,9.51938337 18.5645331,9.51938337 C16.5851592,9.51938337 15.0869273,8.7622717 14.1324248,7.26118023 C14.1149111,7.23363746 14.1031112,7.21594021 14.0700404,7.16740227 C13.8611194,6.86278441 13.9283785,6.96223015 13.8804965,6.87971618 C13.7698899,6.68911031 13.7078166,6.50646498 13.7078166,6.29951095 Z M17.8737707,3.72747615 L17.9707393,4.21798314 L16.9897253,4.41192025 L16.8927568,3.92141326 C16.6191207,2.53724888 16.3617459,1.66962836 16.1665126,1.39050067 C15.9443619,1.07288876 15.8438805,1 15.7433786,1 C15.7102417,1 15.4090415,1.24386383 15.190894,1.48625531 C14.0436041,2.88112467 13.8149689,4.1955793 14.4598794,5.51349964 L14.6796477,5.96261195 L13.7814231,6.4021487 L13.5616548,5.9530364 C12.7341609,4.26199386 13.0348379,2.53336112 14.4326093,0.834687473 C14.883614,0.332124821 15.2938267,0 15.7433786,0 C16.2380504,0 16.5957727,0.259490014 16.9859598,0.817345998 C17.2910922,1.25359794 17.5717357,2.19965834 17.8737707,3.72747615 Z M14.3397506,6.48688835 L14.9070018,7.31043317 C14.9395066,7.28804409 14.863983,7.37134497 14.6820823,7.59782565 C13.6456009,8.79915934 13.3487137,10.6948462 14.4076084,13.0696395 L13.4942872,13.4768796 C12.2761228,10.7448903 12.6376221,8.43664144 13.9133218,6.95854692 C14.1513608,6.66147902 14.2595955,6.54209853 14.3397506,6.48688835 Z M13.7864101,5.79784623 C13.8125716,5.7653082 13.8271707,5.74653363 13.8684056,5.69246892 C13.9792329,5.54590059 14.0816694,5.39684809 14.1444677,5.30065032 L14.981837,5.84728785 C14.9075248,5.96112343 14.7934427,6.12712095 14.6660457,6.29560263 C14.6169004,6.36004948 14.5984358,6.38379505 14.5657453,6.42445349 C14.3154354,6.73577338 14.171372,6.87426848 13.9167227,6.90895111 C10.6703685,7.35109673 8.03965642,9.05116008 7.10965394,12.658044 L6.14132426,12.4083689 C7.17994246,8.38023422 10.1127937,6.44985772 13.668967,5.9339616 C13.7013082,5.90019369 13.7413902,5.85383913 13.7864101,5.79784623 Z M7,23.9661111 C3.6862915,23.9661111 1,21.2798196 1,17.9661111 C1,14.6524026 3.6862915,11.9661111 7,11.9661111 C10.3137085,11.9661111 13,14.6524026 13,17.9661111 C13,21.2798196 10.3137085,23.9661111 7,23.9661111 Z M7,22.9661111 C9.76142375,22.9661111 12,20.7275349 12,17.9661111 C12,15.2046874 9.76142375,12.9661111 7,12.9661111 C4.23857625,12.9661111 2,15.2046874 2,17.9661111 C2,20.7275349 4.23857625,22.9661111 7,22.9661111 Z M16.5979899,23.9661111 C14.6457732,23.9661111 12.8499528,23.0265466 11.7292745,21.4733171 C11.4291364,21.0573338 11.4441993,20.9471783 11.7807854,19.4700835 C11.9268237,18.8292002 11.993431,18.4000297 11.992733,17.9669169 C11.9926551,17.9185577 11.9914882,17.8693214 11.989251,17.8191703 C11.9722836,17.438818 11.9022139,17.0542678 11.7628295,16.4894409 C11.397409,15.0086483 11.3876951,14.9488616 11.667413,14.5462714 C12.7815833,12.9426768 14.6079096,11.9661111 16.5979899,11.9661111 C19.9116984,11.9661111 22.5979899,14.6524026 22.5979899,17.9661111 C22.5979899,21.2798196 19.9116984,23.9661111 16.5979899,23.9661111 Z M16.5979899,22.9661111 C19.3594137,22.9661111 21.5979899,20.7275349 21.5979899,17.9661111 C21.5979899,15.2046874 19.3594137,12.9661111 16.5979899,12.9661111 C14.9389762,12.9661111 13.4178558,13.7794783 12.4886479,15.1168617 C12.4784678,15.1315135 12.518443,15.3775507 12.7337046,16.2498545 C12.8876645,16.8737457 12.9676536,17.3127349 12.9882574,17.7746051 C12.9911243,17.8388712 12.9926304,17.9024173 12.9927317,17.9653053 C12.9935806,18.491998 12.9173039,18.9834709 12.7557922,19.6922586 C12.5466475,20.6100819 12.5136527,20.8513738 12.5402259,20.8882035 C13.4748795,22.1836079 14.9705034,22.9661111 16.5979899,22.9661111 Z" id="Line" fill="#BBBBBB" fill-rule="nonzero"></path>
    </g>
</svg>