<?xml version="1.0" encoding="UTF-8"?>
<svg width="22px" height="24px" viewBox="0 0 22 24" version="1.1" xmlns="http://www.w3.org/2000/svg" xmlns:xlink="http://www.w3.org/1999/xlink">
    <!-- Generator: Sketch 52.2 (67145) - http://www.bohemiancoding.com/sketch -->
    <title>1.18 | Arcade</title>
    <desc>Created with Sketch.</desc>
    <g id="1.18-|-Arcade" stroke="none" stroke-width="1" fill="none" fill-rule="evenodd">
        <path d="M10.925295,10.8444641 C9.42700569,10.8444641 8.20836796,9.65011608 8.20836796,8.17172455 C8.20836796,6.69333302 9.42700569,5.49898501 10.925295,5.49898501 C12.4235843,5.49898501 13.642222,6.69333302 13.642222,8.17172455 C13.642222,9.65011608 12.4235843,10.8444641 10.925295,10.8444641 Z M10.925295,9.84446409 C11.8757557,9.84446409 12.642222,9.09327485 12.642222,8.17172455 C12.642222,7.25017425 11.8757557,6.49898501 10.925295,6.49898501 C9.9748343,6.49898501 9.20836796,7.25017425 9.20836796,8.17172455 C9.20836796,9.09327485 9.9748343,9.84446409 10.925295,9.84446409 Z M14.5169088,16.6845824 L14.3793606,16.9633243 L7.59343769,16.9633243 L7.45588948,16.6845824 C4.69635733,11.0923807 4.68423868,6.33475877 6.67027216,2.46063312 C7.92609142,0.0109253577 10.3576024,-2.25602382 11.0990587,-2.25602382 L11.24431,-2.25602382 L11.3669533,-2.17819972 C11.5455942,-2.06484193 11.8434661,-1.84728418 12.2208116,-1.52347289 C12.8431378,-0.989436543 13.4641747,-0.345429189 14.043619,0.410904647 C17.181376,4.50653835 17.844679,9.9408442 14.5169088,16.6845824 Z M13.2498041,1.01906408 C12.7146503,0.320541551 12.1414749,-0.273834097 11.5695888,-0.764586305 C11.3736001,-0.932769995 11.2042402,-1.06703659 11.0691987,-1.16754533 C11.0270751,-1.13973906 10.9815043,-1.10863627 10.9334188,-1.07473543 C10.6465142,-0.872464599 10.3192501,-0.606802397 9.98254412,-0.292884294 C9.05334262,0.573429946 8.20948817,1.65017779 7.56015468,2.91682289 C5.75252288,6.44294306 5.73168849,10.775342 8.21710333,15.9633243 L13.7557277,15.9633243 C16.7568912,9.70185048 16.1190495,4.76421652 13.2498041,1.01906408 Z M11.2109933,-1.25645277 L11.2056207,-1.25329988 L11.2109933,-1.25645277 Z M7.62682841,15.8620445 L8.00628217,16.7872552 L3.03160787,18.8275027 L2.83482441,18.3824299 C1.71631589,15.8526554 2.41198881,13.5955755 4.21947991,11.7306238 C4.62965767,11.3074064 5.06783616,10.9380361 5.50645909,10.6235058 C5.77191029,10.4331546 5.98151004,10.3016998 6.10784963,10.2309833 L6.44714614,11.0782186 C6.35179303,11.1315909 6.32256043,11.2688244 6.08920305,11.4361617 C5.69647835,11.717779 5.3033092,12.0492078 4.9375625,12.4265817 C3.49951925,13.9103407 2.90578461,15.6066997 3.57085055,17.52551 L7.62682841,15.8620445 Z M14.3703653,15.9755455 L18.4289373,17.6391754 C19.0944456,15.7203647 18.500422,14.0240131 17.0615639,12.5402157 C16.6956125,12.1628346 16.3022215,11.831398 15.909274,11.5497733 C15.6757813,11.3824294 15.4973126,11.2705597 15.4018979,11.2171817 L15.8901232,10.3444641 C16.016521,10.415175 16.2262244,10.5466236 16.49181,10.7369683 C16.9306597,11.0514911 17.3690659,11.4208536 17.7794585,11.8440638 C19.5879408,13.7090299 20.2840161,15.9661945 19.1648632,18.4960584 L18.9680674,18.9409184 L13.9910871,16.9008282 L14.3703653,15.9755455 Z M11.2469762,23.7080773 C11.3061534,23.5668591 11.3674367,23.4182378 11.4313674,23.2610877 C11.6135098,22.8133581 12.1557443,21.4327676 12.2263973,21.2610851 C12.2745745,21.1440174 12.3012243,21.0133633 12.3070842,20.8692749 C12.3199026,20.5540846 12.2334538,20.1934147 12.0784679,19.8284893 C11.9896209,19.6192927 11.9017295,19.4592639 11.8485895,19.3766924 C11.6991475,19.1444819 11.7662445,18.8350915 11.998455,18.6856494 C12.2306654,18.5362074 12.5400559,18.6033044 12.6894979,18.8355149 C12.7711771,18.962432 12.8855145,19.1706126 12.9988962,19.437578 C13.2067863,19.9270699 13.3260016,20.4244437 13.3062583,20.9099101 C13.2958283,21.1663729 13.245793,21.4116768 13.1511509,21.6416514 C13.0843744,21.8039143 12.5431354,23.18197 12.357652,23.6379125 C12.2924634,23.7981545 12.2298637,23.9499684 12.1692717,24.094563 C11.4602578,25.7865282 11.2137129,26.2560238 10.689755,26.2560238 C10.47997,26.2560238 10.2924927,26.1250664 10.2202965,25.9280956 C10.1675916,25.7843023 10.0749598,25.5324055 9.95531587,25.2084686 C9.75591583,24.6685913 9.55531123,24.1287394 9.36644447,23.6250473 C9.35119888,23.5843958 9.35119888,23.5843958 9.33594891,23.5437619 C9.00573017,22.6640499 8.75083334,22.0006097 8.60311029,21.6416514 C8.5084682,21.4116768 8.45843298,21.1663729 8.44800296,20.9099101 C8.42825965,20.4244437 8.54747489,19.9270699 8.755365,19.437578 C8.86874676,19.1706126 8.98308414,18.962432 9.06476332,18.8355149 C9.21420535,18.6033044 9.52359582,18.5362074 9.75580626,18.6856494 C9.9880167,18.8350915 10.0551138,19.1444819 9.90567172,19.3766924 C9.85253173,19.4592639 9.76464034,19.6192927 9.67579334,19.8284893 C9.52080738,20.1934147 9.43435862,20.5540846 9.44717701,20.8692749 C9.4530369,21.0133633 9.47968674,21.1440174 9.52786391,21.2610851 C9.68090481,21.6329654 9.93825094,22.3027806 10.2721637,23.1923336 C10.2874773,23.233137 10.2874773,23.233137 10.3027845,23.2739528 C10.4697367,23.7192006 10.6457246,24.1923248 10.8219494,24.66875 C10.9467343,24.4074779 11.0885873,24.0860509 11.2469762,23.7080773 Z" id="Oval-2" fill="#BBBBBB" fill-rule="nonzero" transform="translate(11.000000, 12.000000) rotate(45.000000) translate(-11.000000, -12.000000) "></path>
    </g>
</svg>