<?xml version="1.0" encoding="UTF-8"?>
<svg width="20px" height="24px" viewBox="0 0 20 24" version="1.1" xmlns="http://www.w3.org/2000/svg" xmlns:xlink="http://www.w3.org/1999/xlink">
    <!-- Generator: Sketch 52.2 (67145) - http://www.bohemiancoding.com/sketch -->
    <title>1.15 | Table Games</title>
    <desc>Created with Sketch.</desc>
    <g id="1.15-|-Table-Games" stroke="none" stroke-width="1" fill="none" fill-rule="evenodd">
        <path d="M13.3370745,6.07706493 C12.475225,5.50789062 10.5734183,4.24403741 10.0570258,3.00000071 C9.52389835,4.23853282 7.60774743,5.48367044 6.74111648,6.04293649 C3.82445507,7.91889979 -0.770482013,10.7504594 1.80908984,14.8282576 C3.51007722,17.5200007 7.64480338,17.2282576 9.44500505,14.7908264 C8.95491031,20.5915603 6.16137026,20.9603677 6.16137026,20.9603677 L13.7375178,21.0000007 C13.7375178,21.0000007 10.9523452,20.6014686 10.5279949,14.7985328 C12.2995081,17.2524778 16.4306482,17.5838539 18.1639101,14.9108264 C20.78771,10.8583493 16.2262428,7.98055117 13.3370745,6.07706493 Z M15.6666569,6.44415387 C19.6411802,9.26984768 21.197108,12.0586228 18.9967595,15.4570759 C17.4602198,17.8267194 14.3410053,18.3406648 11.9196703,17.1977318 C12.1617333,18.0689934 12.4908336,18.7387066 12.8826397,19.2319715 C13.1504744,19.5691625 13.4221784,19.7899512 13.6808209,19.9231635 C13.8072247,19.9882671 13.8802297,20.010351 13.8775719,20.0099707 C15.103664,20.185413 14.9707687,22.0064657 13.732346,21.9999872 L6.15619849,21.9603542 C4.91752695,21.9538743 4.80380735,20.1310162 6.03195933,19.9688737 C6.03065001,19.9690466 6.1070063,19.9466902 6.23815069,19.8801807 C6.50557347,19.744558 6.78637338,19.5178829 7.06318821,19.1698163 C7.45014951,18.6832517 7.77818773,18.0271089 8.02497923,17.1779832 C5.5906805,18.2966168 2.47827841,17.751549 0.970179409,15.3650437 C-1.19175274,11.9474522 0.393329604,9.17498404 4.39634398,6.39224116 C4.90157637,6.04102288 5.1019999,5.91018864 6.20415172,5.20129854 C7.8103093,4.16479112 8.83293129,3.32667421 9.14456066,2.60271417 C9.49294936,1.79335688 10.6367465,1.80088026 10.9745796,2.61475121 C11.2757139,3.34021119 12.2858932,4.18649836 13.88238,5.24086874 C14.9808123,5.96455525 15.1687298,6.09015178 15.6666569,6.44415387 Z" id="Fill-6" fill="#BBBBBB" fill-rule="nonzero"></path>
    </g>
</svg>