<?xml version="1.0" encoding="UTF-8"?>
<svg width="28px" height="24px" viewBox="0 0 28 24" version="1.1" xmlns="http://www.w3.org/2000/svg" xmlns:xlink="http://www.w3.org/1999/xlink">
    <!-- Generator: Sketch 52.2 (67145) - http://www.bohemiancoding.com/sketch -->
    <title>1.21 | Jackpots</title>
    <desc>Created with Sketch.</desc>
    <g id="1.21-|-Jackpots" stroke="none" stroke-width="1" fill="none" fill-rule="evenodd">
        <path d="M1.4646993,12 C1.4646993,16.790105 4.91533574,20.7484105 9.39847882,21.4045239 C6.00365329,19.6731417 3.7146993,16.0814179 3.7146993,12 C3.7146993,7.91858205 6.00365329,4.32685834 9.39847882,2.59547611 C4.91533574,3.25158952 1.4646993,7.20989497 1.4646993,12 Z M12.4244882,2.63102247 C8.00290451,3.3918442 4.7146993,7.34010759 4.7146993,12 C4.7146993,16.6598924 8.00290451,20.6081558 12.4244882,21.3689775 L15.2881978,21.8617359 L12.4244882,22.3544943 C11.8631094,22.4510908 11.2918166,22.5 10.7146993,22.5 C5.05090781,22.5 0.464699304,17.7961964 0.464699304,12 C0.464699304,6.2038036 5.05090781,1.5 10.7146993,1.5 C11.2918166,1.5 11.8631094,1.54890924 12.4244882,1.64550567 L15.2881978,2.13826407 L12.4244882,2.63102247 Z M4.79926386,12 C4.79926386,16.790105 8.24990029,20.7484105 12.7330434,21.4045239 C9.33821784,19.6731417 7.04926386,16.0814179 7.04926386,12 C7.04926386,7.91858205 9.33821784,4.32685834 12.7330434,2.59547611 C8.24990029,3.25158952 4.79926386,7.20989497 4.79926386,12 Z M15.7590528,2.63102247 C11.3374691,3.3918442 8.04926386,7.34010759 8.04926386,12 C8.04926386,16.6598924 11.3374691,20.6081558 15.7590528,21.3689775 L18.6227624,21.8617359 L15.7590528,22.3544943 C15.197674,22.4510908 14.6263812,22.5 14.0492639,22.5 C8.38547236,22.5 3.79926386,17.7961964 3.79926386,12 C3.79926386,6.2038036 8.38547236,1.5 14.0492639,1.5 C14.6263812,1.5 15.197674,1.54890924 15.7590528,1.64550567 L18.6227624,2.13826407 L15.7590528,2.63102247 Z M17.2853007,22.5 C11.6215092,22.5 7.0353007,17.7961964 7.0353007,12 C7.0353007,6.2038036 11.6215092,1.5 17.2853007,1.5 C22.9490922,1.5 27.5353007,6.2038036 27.5353007,12 C27.5353007,17.7961964 22.9490922,22.5 17.2853007,22.5 Z M17.2853007,21.5 C22.3910618,21.5 26.5353007,17.2494986 26.5353007,12 C26.5353007,6.75050141 22.3910618,2.5 17.2853007,2.5 C12.1795396,2.5 8.0353007,6.75050141 8.0353007,12 C8.0353007,17.2494986 12.1795396,21.5 17.2853007,21.5 Z M17.6902481,6.03475862 L17.6902481,7.23972414 C18.4582481,7.33241379 19.1600412,7.84882759 19.5440412,8.57710345 L18.7760412,9.08027586 C18.4450067,8.52413793 18.140455,8.27255172 17.6902481,8.16662069 L17.6902481,11.0664828 C18.2596274,11.318069 18.5376963,11.4637241 18.8687308,11.6888276 C19.5175584,12.1125517 19.8618343,12.7746207 19.8618343,13.5691034 C19.8618343,14.8667586 19.014386,15.8995862 17.6902481,16.1908966 L17.6902481,17.4753103 L16.9090067,17.4753103 L16.9090067,16.2438621 C15.664317,16.2041379 14.6182481,15.2772414 14.3799032,13.9928276 L15.3332825,13.728 C15.4789377,14.6416552 16.0880412,15.2507586 16.9090067,15.3302069 L16.9090067,11.7550345 C15.4127308,11.1326897 14.8301101,10.4971034 14.8301101,9.46427586 C14.8301101,8.2857931 15.6378343,7.42510345 16.9090067,7.22648276 L16.9090067,6.03475862 L17.6902481,6.03475862 Z M17.6902481,12.1125517 L17.6902481,15.2507586 C18.4317653,14.9594483 18.8687308,14.3635862 18.8687308,13.6088276 C18.8687308,12.9467586 18.524455,12.5230345 17.6902481,12.1125517 Z M16.9090067,10.7222069 L16.9090067,8.15337931 C16.2336963,8.32551724 15.8232136,8.82868966 15.8232136,9.46427586 C15.8232136,9.99393103 16.1542481,10.377931 16.9090067,10.7222069 Z" id="Combined-Shape" fill="#BBBBBB" fill-rule="nonzero"></path>
    </g>
</svg>